<?xml version="1.0" standalone="no"?>
<!DOCTYPE svg PUBLIC "-//W3C//DTD SVG 20010904//EN"
 "http://www.w3.org/TR/2001/REC-SVG-20010904/DTD/svg10.dtd">
<svg version="1.0" xmlns="http://www.w3.org/2000/svg"
 width="644.000000pt" height="644.000000pt" viewBox="0 0 644.000000 644.000000"
 preserveAspectRatio="xMidYMid meet">
<metadata>
Created by potrace 1.11, written by Peter Selinger 2001-2013
</metadata>
<g transform="translate(0.000000,644.000000) scale(0.100000,-0.100000)"
fill="#000000" stroke="none">
<path d="M3018 6235 c-1 -1 -40 -6 -86 -9 -46 -4 -89 -9 -95 -11 -7 -2 -34 -6
-62 -9 -27 -3 -75 -10 -105 -16 -30 -6 -66 -14 -80 -16 -14 -3 -52 -12 -85
-20 -608 -152 -1153 -485 -1562 -953 -30 -34 -122 -152 -201 -256 -4 -5 -35
-54 -70 -108 -207 -324 -357 -707 -421 -1077 -39 -217 -46 -304 -46 -540 0
-351 23 -505 130 -900 2 -8 17 -54 34 -102 310 -882 1010 -1574 1890 -1869
128 -42 295 -87 386 -104 86 -15 219 -34 285 -42 95 -10 470 -10 572 -1 128
13 266 34 358 55 36 8 74 17 84 19 84 16 305 90 450 149 73 29 269 126 344
170 77 45 148 90 150 97 2 4 8 8 13 8 8 0 117 75 169 117 394 313 682 669 884
1095 140 295 218 554 271 903 27 181 28 586 1 775 -2 14 -7 49 -11 79 -3 30
-9 63 -11 75 -2 12 -7 37 -10 56 -13 78 -78 311 -119 427 -198 561 -570 1063
-1050 1419 -44 32 -89 65 -100 71 -11 7 -60 38 -110 70 -229 145 -556 287
-815 354 -95 24 -308 65 -385 74 -33 3 -73 8 -90 11 -33 6 -501 14 -507 9z"/>
</g>
</svg>
